<?xml version="1.0" encoding="UTF-8"?>
<svg xmlns="http://www.w3.org/2000/svg" viewBox="0 0 133 130" width="133" height="130">
  <title>cluster role</title>
  <g fill-rule="evenodd" clip-rule="evenodd">
    <path d="M 42,107 L 44,108 L 43,109 L 43,115 L 44,116 L 47,116 L 48,114 L 50,115 L 50,116 L 48,118 L 46,118 L 45,119 L 41,116 L 40,114 L 40,110 Z M 85,106 L 88,106 L 91,109 L 91,112 L 90,113 L 84,113 L 84,115 L 86,116 L 88,116 L 89,115 L 91,116 L 87,119 L 84,118 L 81,114 L 81,111 Z M 71,106 L 75,110 L 75,114 L 72,118 L 70,118 L 69,119 L 64,115 L 64,110 L 65,108 L 67,107 L 68,108 L 67,109 L 67,115 L 68,116 L 71,116 L 72,114 L 72,110 L 70,108 L 68,108 L 67,107 L 68,106 Z M 63,106 L 64,107 L 60,109 L 60,117 L 58,118 L 57,117 L 57,107 L 58,106 L 60,107 L 61,106 Z M 43,107 L 44,106 L 47,106 L 50,109 L 50,110 L 48,111 L 46,108 L 44,108 Z M 78,102 L 79,103 L 79,117 L 78,118 L 77,117 L 77,103 Z M 66,34 L 72,37 L 74,37 L 76,39 L 78,39 L 83,42 L 85,42 L 90,45 L 90,65 L 89,66 L 88,72 L 84,79 L 76,87 L 68,91 L 62,90 L 54,85 L 48,78 L 44,70 L 44,67 L 43,66 L 43,45 L 50,41 L 52,41 Z M 65,3 L 41,15 L 39,15 L 22,24 L 20,24 L 15,28 L 14,30 L 14,33 L 13,34 L 13,37 L 12,38 L 12,42 L 11,43 L 10,50 L 9,51 L 9,55 L 8,56 L 8,59 L 7,60 L 7,63 L 6,64 L 6,68 L 5,69 L 5,72 L 4,73 L 4,76 L 3,77 L 3,83 L 9,90 L 12,95 L 17,100 L 17,101 L 29,115 L 29,116 L 33,120 L 33,121 L 38,126 L 94,126 L 97,124 L 97,123 L 102,118 L 102,117 L 110,108 L 113,103 L 118,98 L 121,93 L 129,84 L 129,75 L 128,74 L 127,66 L 126,65 L 126,62 L 125,61 L 125,58 L 124,57 L 124,54 L 123,53 L 123,49 L 122,48 L 122,45 L 121,44 L 121,40 L 120,39 L 120,36 L 119,35 L 118,29 L 117,27 L 116,27 L 114,25 L 100,18 L 98,18 L 79,8 L 77,8 L 68,3 Z" fill="#326CE5"/>
    <path d="M 83,109 L 85,107 L 88,107 L 90,111 L 89,112 L 84,112 L 83,111 Z M 68,107 L 71,107 L 73,110 L 73,115 L 71,117 L 68,117 L 65,113 L 66,109 Z M 85,107 L 82,111 L 82,114 L 83,116 L 85,117 L 89,117 L 90,116 L 89,117 L 85,117 L 83,115 L 83,113 L 84,112 L 90,112 L 90,109 L 88,107 Z M 68,107 L 65,110 L 65,114 L 67,117 L 71,117 L 73,116 L 74,114 L 74,110 L 71,107 Z M 62,107 L 60,108 L 59,107 L 59,117 L 59,109 Z M 44,107 L 47,107 L 49,110 L 49,109 L 47,107 L 44,107 L 41,111 L 41,114 L 43,117 L 47,117 L 49,116 L 49,115 L 47,117 L 44,117 L 42,115 L 42,109 Z M 64,62 L 63,63 L 63,67 L 67,68 L 69,66 L 69,64 L 67,62 Z M 62,50 L 62,54 L 71,54 L 71,51 L 67,48 L 65,48 Z M 62,44 L 64,44 L 65,43 L 71,44 L 76,50 L 76,55 L 79,55 L 80,56 L 80,75 L 79,76 L 54,76 L 53,75 L 53,56 L 54,55 L 57,55 L 57,50 Z M 64,36 L 57,40 L 55,40 L 50,43 L 48,43 L 44,45 L 44,66 L 45,67 L 46,72 L 50,79 L 60,88 L 62,88 L 65,90 L 68,90 L 76,86 L 83,79 L 87,72 L 87,69 L 88,68 L 88,65 L 89,64 L 89,45 L 85,43 L 83,43 L 78,40 L 76,40 L 71,37 L 69,37 L 68,36 Z" fill="#FFFFFF"/>
  </g>
</svg>
