<?xml version="1.0" encoding="UTF-8"?>
<svg xmlns="http://www.w3.org/2000/svg" viewBox="0 0 136 133" width="136" height="133">
  <title>user</title>
  <g fill-rule="evenodd" clip-rule="evenodd">
    <path d="M 87,108 L 88,110 L 84,112 L 84,120 L 83,121 L 82,120 L 82,109 L 83,108 L 84,109 Z M 74,108 L 77,108 L 80,112 L 80,114 L 79,115 L 72,115 L 72,116 L 74,118 L 77,118 L 78,117 L 80,118 L 77,121 L 74,121 L 70,118 L 70,112 L 71,110 Z M 62,108 L 65,108 L 68,111 L 67,113 L 65,111 L 62,111 L 62,113 L 64,113 L 68,116 L 68,119 L 65,121 L 62,121 L 60,120 L 58,117 L 60,116 L 62,118 L 65,118 L 65,116 L 61,115 L 59,113 L 59,111 Z M 48,108 L 50,110 L 50,118 L 53,118 L 54,117 L 54,109 L 55,108 L 57,109 L 57,120 L 56,121 L 54,120 L 50,121 L 47,118 L 47,109 Z M 35,27 L 38,27 L 39,26 L 97,26 L 98,27 L 100,27 L 104,32 L 104,90 L 103,92 L 100,95 L 98,95 L 97,96 L 38,96 L 37,95 L 35,95 L 32,91 L 32,31 Z M 66,3 L 57,8 L 55,8 L 40,16 L 38,16 L 18,26 L 15,29 L 14,35 L 13,36 L 13,40 L 12,41 L 12,44 L 11,45 L 11,48 L 10,49 L 10,52 L 9,53 L 9,57 L 8,58 L 8,61 L 7,62 L 7,65 L 6,66 L 6,71 L 5,72 L 5,75 L 4,76 L 3,82 L 4,83 L 5,87 L 8,90 L 8,91 L 13,96 L 13,97 L 17,101 L 17,102 L 21,106 L 21,107 L 25,111 L 25,112 L 29,116 L 29,117 L 33,121 L 33,122 L 39,128 L 41,128 L 42,129 L 93,129 L 99,126 L 99,125 L 104,120 L 104,119 L 128,90 L 128,89 L 132,84 L 132,78 L 131,77 L 131,74 L 130,73 L 130,70 L 129,69 L 129,66 L 128,65 L 127,56 L 126,55 L 126,52 L 125,51 L 125,48 L 124,47 L 124,44 L 123,43 L 123,39 L 122,38 L 121,31 L 119,27 L 93,14 L 91,14 L 72,4 Z" fill="#326CE5"/>
    <path d="M 71,113 L 73,110 L 77,110 L 78,111 L 78,113 L 77,114 L 72,114 Z M 87,110 L 83,110 L 83,119 L 83,112 L 85,110 Z M 73,110 L 71,112 L 71,117 L 72,119 L 76,120 L 78,119 L 76,119 L 75,120 L 73,119 L 71,115 L 72,114 L 79,114 L 79,112 L 78,110 Z M 61,110 L 60,111 L 60,113 L 61,114 L 65,115 L 67,117 L 64,120 L 60,118 L 60,117 L 61,119 L 65,120 L 67,118 L 67,116 L 66,115 L 62,114 L 60,112 L 62,110 L 65,110 L 67,111 L 66,110 Z M 48,110 L 48,118 L 50,120 L 56,119 L 56,110 L 55,110 L 55,118 L 54,119 L 50,119 L 48,117 Z M 44,73 L 49,68 L 51,68 L 56,65 L 60,65 L 61,64 L 75,64 L 76,65 L 79,65 L 86,68 L 91,73 L 92,75 L 92,84 L 91,85 L 45,85 L 44,84 Z M 65,37 L 71,37 L 73,38 L 78,44 L 78,52 L 71,58 L 64,58 L 62,57 L 57,51 L 57,45 L 59,41 L 61,39 Z M 33,31 L 33,91 L 36,94 L 100,94 L 102,92 L 102,30 L 100,28 L 36,28 Z" fill="#FFFFFF"/>
  </g>
</svg>
